# xmcd
# Track frame offsets:
# 150
# 14065
# 27467
# 40541
# 57861
# 72510
# 91647
# 106607
# 129477
# 141691
#
# Disc length: 2155 seconds
# Revision: 0
# Processed by: cddbd v1.5.1PL0 Copyright (c) Steve Scherf et al.
# Submitted via: VisiTrax 2.9.10.228 - For more info visit www.synapsa.com
#
DISCID=8608690a
DTITLE=Soucelier.Lynn. - Butterflies.
DYEAR=2005
DGENRE=Aust.
TTITLE0=Kickin' Up Country.
TTITLE1=Pride.
TTITLE2=Pioneer's Daughter.
TTITLE3=Roamin' Man.
TTITLE4=Everytime.
TTITLE5=Winds Of Change.
TTITLE6='Til You Were Gone.
TTITLE7=True Confessions.
TTITLE8=Hallelujah Lord.
TTITLE9=Water.
EXTD=
EXTT0=
EXTT1=
EXTT2=
EXTT3=
EXTT4=
EXTT5=
EXTT6=
EXTT7=
EXTT8=
EXTT9=
PLAYORDER=
